<svg width="800" height="800" viewBox="0 0 800 800" fill="none" xmlns="http://www.w3.org/2000/svg">
<g clip-path="url(#clip0_1_2)">
<path d="M121.178 462.586L279.286 400.3V399.345L121.178 336.583V267.108L362.645 373.95V425.211L121.178 532.053V462.586ZM678.822 537.323V599.609H393.281V537.323H678.822ZM732.683 0.78125H67.3172C30.7219 0.78125 0.78125 30.7234 0.78125 67.3172V732.681C0.78125 769.277 30.7219 799.217 67.3172 799.217H732.683C769.278 799.217 799.219 769.277 799.219 732.681V67.3172C799.219 30.7234 769.278 0.78125 732.683 0.78125ZM732.683 732.683H67.3172V167.122H732.683V732.683Z" fill="white"/>
</g>
<defs>
<clipPath id="clip0_1_2">
<rect width="800" height="800" fill="white"/>
</clipPath>
</defs>
</svg>
