<svg width="22" height="19" viewBox="0 0 22 19" fill="none" xmlns="http://www.w3.org/2000/svg">
<path d="M20.6666 6.5H0.666626M12.6666 15L15.1666 12.5L12.6666 10M8.66663 10L6.16663 12.5L8.66663 15M0.666626 5.3V13.7C0.666626 15.3802 0.666626 16.2202 0.993606 16.862C1.28123 17.4265 1.74017 17.8854 2.30466 18.173C2.94639 18.5 3.78647 18.5 5.46663 18.5H15.8666C17.5468 18.5 18.3868 18.5 19.0286 18.173C19.5931 17.8854 20.052 17.4265 20.3396 16.862C20.6666 16.2202 20.6666 15.3802 20.6666 13.7V5.3C20.6666 3.61984 20.6666 2.77977 20.3396 2.13803C20.052 1.57354 19.5931 1.1146 19.0286 0.82698C18.3868 0.5 17.5468 0.5 15.8666 0.5H5.46663C3.78647 0.5 2.94639 0.5 2.30466 0.82698C1.74017 1.1146 1.28123 1.57354 0.993606 2.13803C0.666626 2.77976 0.666626 3.61984 0.666626 5.3Z" stroke="white" stroke-linecap="round" stroke-linejoin="round"/>
</svg>
