<svg width="800" height="800" viewBox="0 0 800 800" fill="none" xmlns="http://www.w3.org/2000/svg">
<path d="M394.304 477.176C397.368 479.96 401.208 481.328 405.04 481.328C405.648 481.328 406.248 481.208 406.864 481.144C407.088 481.152 407.32 481.208 407.544 481.208C411.904 481.208 416.248 479.432 419.4 475.952L541.248 341.52C547.184 334.976 546.688 324.856 540.136 318.928C533.592 312.984 523.472 313.496 517.544 320.04L405.248 443.92L281.352 331.624C274.8 325.672 264.688 326.184 258.76 332.736C252.824 339.28 253.32 349.4 259.872 355.328L394.304 477.176Z" fill="white"/>
<path d="M400 665.712C547.592 665.712 667.664 545.64 667.664 398.056C667.664 250.464 547.592 130.392 400 130.392C252.416 130.392 132.344 250.464 132.344 398.056C132.344 545.64 252.416 665.712 400 665.712ZM400 162.392C529.944 162.392 635.664 268.112 635.664 398.056C635.664 527.992 529.944 633.712 400 633.712C270.064 633.712 164.344 527.992 164.344 398.056C164.344 268.112 270.064 162.392 400 162.392Z" fill="white"/>
</svg>
