<svg width="298" height="82" viewBox="0 0 298 82" fill="none" xmlns="http://www.w3.org/2000/svg">
<g filter="url(#filter0_d_1_9)">
<path d="M47.5547 25.7578C46.6432 25.5234 45.6992 25.4062 44.7227 25.4062C43.7331 25.4062 42.9388 25.6471 42.3398 26.1289C41.7279 26.6237 41.4219 27.3203 41.4219 28.2188C41.4219 29.1172 41.6497 29.8203 42.1055 30.3281C42.5612 30.8229 43.4531 31.2591 44.7812 31.6367L48.3555 32.6719C50.2695 33.2318 51.793 34.1107 52.9258 35.3086C54.0586 36.4935 54.625 38.2318 54.625 40.5234C54.625 42.3333 54.1758 43.8958 53.2773 45.2109C52.3789 46.526 51.1549 47.5417 49.6055 48.2578C48.069 48.9609 46.3307 49.3125 44.3906 49.3125C42.7891 49.3125 41.1419 49.1107 39.4492 48.707C37.7565 48.2904 36.3503 47.7109 35.2305 46.9688V46.0312C35.2305 45.7318 35.2695 45.276 35.3477 44.6641C35.4388 44.0521 35.5625 43.4141 35.7188 42.75C35.888 42.0729 36.0833 41.5 36.3047 41.0312H40.1133C40.543 41.8776 40.7969 42.9844 40.875 44.3516C41.7734 44.7552 42.8607 44.957 44.1367 44.957C45.3737 44.957 46.3893 44.6641 47.1836 44.0781C47.9909 43.4922 48.3945 42.6523 48.3945 41.5586C48.3945 41.0378 48.3555 40.6146 48.2773 40.2891C48.1992 39.9505 47.9518 39.5924 47.5352 39.2148C47.1185 38.8372 46.526 38.5247 45.7578 38.2773L41.6367 37.0859C37.444 35.901 35.3477 33.2318 35.3477 29.0781C35.3477 27.4635 35.7448 26.0573 36.5391 24.8594C37.3464 23.6615 38.4661 22.7305 39.8984 22.0664C41.3307 21.4023 42.9974 21.0703 44.8984 21.0703C47.75 21.0703 50.5299 21.7148 53.2383 23.0039V23.9219C53.2383 24.2214 53.1927 24.6836 53.1016 25.3086C53.0234 25.9206 52.8997 26.5586 52.7305 27.2227C52.5742 27.8867 52.3789 28.4531 52.1445 28.9219H48.3555C47.8997 28.2708 47.6328 27.2161 47.5547 25.7578ZM66.168 49.3125C62.9648 49.3125 60.556 48.4596 58.9414 46.7539C57.3268 45.0482 56.5195 42.5677 56.5195 39.3125C56.5195 37.3464 56.7995 35.6536 57.3594 34.2344C57.9193 32.8021 58.681 31.6953 59.6445 30.9141C61.5065 29.4297 63.681 28.6875 66.168 28.6875C67.8216 28.6875 69.2148 28.9609 70.3477 29.5078C71.4935 30.0417 72.3594 30.9466 72.9453 32.2227C73.5443 33.4857 73.8438 35.2109 73.8438 37.3984C73.8438 39.3255 72.8932 40.2891 70.9922 40.2891H62.3203C62.4245 41.9688 62.8542 43.1536 63.6094 43.8438C64.3776 44.5339 65.5885 44.8789 67.2422 44.8789C68.1406 44.8789 69 44.7747 69.8203 44.5664C70.6536 44.3451 71.2591 44.1302 71.6367 43.9219L72.2031 43.6094L73.3945 46.793C73.2513 46.9622 73.0234 47.1966 72.7109 47.4961C72.5026 47.6914 72.0794 47.9323 71.4414 48.2188C70.8034 48.5052 70.0221 48.7591 69.0977 48.9805C68.1862 49.2018 67.2096 49.3125 66.168 49.3125ZM62.3594 36.9688L68.6875 36.7148C68.7396 36.3893 68.7656 35.9401 68.7656 35.3672C68.7656 34.8333 68.5508 34.2669 68.1211 33.668C67.6914 33.069 66.9492 32.7695 65.8945 32.7695C64.8398 32.7695 64.0326 33.0885 63.4727 33.7266C62.9128 34.3646 62.5417 35.4453 62.3594 36.9688ZM75.8945 32.0859L76.2852 29C77.7174 28.6745 79.0391 28.5117 80.25 28.5117C80.8359 28.5117 81.3698 28.5247 81.8516 28.5508C82.3464 28.5638 82.7891 28.5833 83.1797 28.6094V30.6016C83.8438 30.0417 84.7292 29.5859 85.8359 29.2344C86.9427 28.8698 88.0039 28.6875 89.0195 28.6875C90.7643 28.6875 92.151 28.9544 93.1797 29.4883C94.2083 30.0091 94.9505 30.8685 95.4062 32.0664C95.862 33.2643 96.0898 34.8659 96.0898 36.8711V44.5664C97.1315 44.957 97.8672 45.4062 98.2969 45.9141L97.8867 49H88.6875L88.2969 45.9141C88.6615 45.4062 89.3971 44.957 90.5039 44.5664V36.6367C90.5039 35.1914 90.2695 34.2279 89.8008 33.7461C89.4362 33.3555 88.9089 33.1211 88.2188 33.043C87.5286 32.9518 86.7799 33.0104 85.9727 33.2188C85.1654 33.4271 84.4036 33.7786 83.6875 34.2734V44.5664C84.7292 44.957 85.4648 45.4062 85.8945 45.9141L85.5039 49H76.2852L75.8945 45.9141C76.2591 45.4062 76.9948 44.957 78.1016 44.5664V33.4336C77.151 33.1211 76.4154 32.6719 75.8945 32.0859ZM107.672 32.2812C105.914 32.2812 105.035 32.8021 105.035 33.8438C105.035 34.8333 105.96 35.5625 107.809 36.0312L110.953 36.8711C114.208 37.7305 115.836 39.612 115.836 42.5156C115.836 44.5078 115.139 46.1419 113.746 47.418C113.043 48.043 112.099 48.5117 110.914 48.8242C109.729 49.1237 108.453 49.2865 107.086 49.3125C105.732 49.3385 104.417 49.2409 103.141 49.0195C101.865 48.7982 100.79 48.4727 99.918 48.043C99.9049 47.8997 99.8919 47.7565 99.8789 47.6133C99.8789 47.457 99.8789 47.3073 99.8789 47.1641C99.8789 45.6927 100.172 44.3711 100.758 43.1992H104.078C104.443 43.8633 104.671 44.5273 104.762 45.1914C105.27 45.3607 106.031 45.4453 107.047 45.4453C109.391 45.4453 110.562 44.7747 110.562 43.4336C110.562 43.0169 110.406 42.6654 110.094 42.3789C109.755 42.1055 109.124 41.832 108.199 41.5586L105.035 40.6406C103.408 40.1849 102.138 39.5143 101.227 38.6289C100.328 37.7305 99.8789 36.4089 99.8789 34.6641C99.8789 32.9062 100.589 31.474 102.008 30.3672C102.711 29.8073 103.59 29.3906 104.645 29.1172C105.712 28.8438 106.852 28.7005 108.062 28.6875C109.273 28.6615 110.458 28.7526 111.617 28.9609C112.776 29.1562 113.811 29.4492 114.723 29.8398C114.736 29.9701 114.742 30.1003 114.742 30.2305C114.755 30.3607 114.762 30.4974 114.762 30.6406C114.762 32.0078 114.469 33.2904 113.883 34.4883H110.602C110.237 33.8503 110.009 33.2057 109.918 32.5547C109.15 32.3724 108.401 32.2812 107.672 32.2812ZM127.34 49.3125C124.137 49.3125 121.728 48.4596 120.113 46.7539C118.499 45.0482 117.691 42.5677 117.691 39.3125C117.691 37.3464 117.971 35.6536 118.531 34.2344C119.091 32.8021 119.853 31.6953 120.816 30.9141C122.678 29.4297 124.853 28.6875 127.34 28.6875C128.993 28.6875 130.387 28.9609 131.52 29.5078C132.665 30.0417 133.531 30.9466 134.117 32.2227C134.716 33.4857 135.016 35.2109 135.016 37.3984C135.016 39.3255 134.065 40.2891 132.164 40.2891H123.492C123.596 41.9688 124.026 43.1536 124.781 43.8438C125.549 44.5339 126.76 44.8789 128.414 44.8789C129.312 44.8789 130.172 44.7747 130.992 44.5664C131.826 44.3451 132.431 44.1302 132.809 43.9219L133.375 43.6094L134.566 46.793C134.423 46.9622 134.195 47.1966 133.883 47.4961C133.674 47.6914 133.251 47.9323 132.613 48.2188C131.975 48.5052 131.194 48.7591 130.27 48.9805C129.358 49.2018 128.382 49.3125 127.34 49.3125ZM123.531 36.9688L129.859 36.7148C129.911 36.3893 129.938 35.9401 129.938 35.3672C129.938 34.8333 129.723 34.2669 129.293 33.668C128.863 33.069 128.121 32.7695 127.066 32.7695C126.012 32.7695 125.204 33.0885 124.645 33.7266C124.085 34.3646 123.714 35.4453 123.531 36.9688ZM174.254 26.1289C173.46 25.7773 172.262 25.6016 170.66 25.6016C169.059 25.6016 167.763 26.2917 166.773 27.6719C165.784 29.0521 165.289 31.4805 165.289 34.957C165.289 38.4206 165.764 40.8815 166.715 42.3398C167.665 43.7982 169.072 44.5273 170.934 44.5273C173.785 44.5273 176.344 44.0977 178.609 43.2383L180.055 46.793C177.229 48.4727 173.909 49.3125 170.094 49.3125C166.279 49.3125 163.525 48.2318 161.832 46.0703C160.139 43.9349 159.293 40.4062 159.293 35.4844C159.293 30.5755 160.341 26.9492 162.438 24.6055C164.534 22.2487 167.47 21.0703 171.246 21.0703C174.293 21.0703 177.19 21.9167 179.938 23.6094V24.5078C179.938 24.8073 179.892 25.2695 179.801 25.8945C179.723 26.5065 179.599 27.151 179.43 27.8281C179.273 28.4922 179.078 29.0586 178.844 29.5273H175.055C174.677 28.7852 174.41 27.6523 174.254 26.1289ZM201.148 38.5117C201.148 41.1159 200.706 43.2122 199.82 44.8008C198.935 46.3763 197.73 47.5221 196.207 48.2383C194.697 48.9414 192.991 49.293 191.09 49.293C188.121 49.293 185.836 48.5052 184.234 46.9297C182.646 45.3411 181.852 42.6784 181.852 38.9414C181.852 35.582 182.73 33.0365 184.488 31.3047C186.259 29.5599 188.674 28.6875 191.734 28.6875C194.859 28.6875 197.21 29.4557 198.785 30.9922C200.361 32.5286 201.148 35.0352 201.148 38.5117ZM187.672 38.8438C187.672 43.1016 188.954 45.2305 191.52 45.2305C192.822 45.2305 193.785 44.7487 194.41 43.7852C195.035 42.8086 195.348 41.2135 195.348 39C195.348 34.8464 194.039 32.7695 191.422 32.7695C190.146 32.7695 189.202 33.2318 188.59 34.1562C187.978 35.0677 187.672 36.6302 187.672 38.8438ZM213.16 23.6875L213.551 20.6016C215.074 20.25 216.533 20.0742 217.926 20.0742C219.306 20.0742 220.491 20.1133 221.48 20.1914V44.1953C222.301 44.3385 223.036 44.5664 223.688 44.8789V48.043C222.073 48.8893 220.042 49.3125 217.594 49.3125C217.333 49.1823 217.073 48.9479 216.812 48.6094C216.565 48.2578 216.428 47.9193 216.402 47.5938C215.816 48.0755 215.055 48.4857 214.117 48.8242C213.18 49.1497 212.262 49.3125 211.363 49.3125C208.486 49.3125 206.396 48.5378 205.094 46.9883C203.805 45.4258 203.16 42.8672 203.16 39.3125C203.16 35.2891 204.15 32.4635 206.129 30.8359C207.874 29.4036 210.003 28.6875 212.516 28.6875C213.609 28.6875 214.729 28.8177 215.875 29.0781V25.1133C214.664 24.7878 213.759 24.3125 213.16 23.6875ZM212.203 45.2305C213.74 45.2305 214.964 44.7812 215.875 43.8828V33.1602C214.755 32.8997 213.596 32.7695 212.398 32.7695C211.174 32.7695 210.289 33.3034 209.742 34.3711C209.195 35.4388 208.922 37.0534 208.922 39.2148C208.922 41.3633 209.189 42.9062 209.723 43.8438C210.257 44.7682 211.083 45.2305 212.203 45.2305ZM234.957 49.3125C231.754 49.3125 229.345 48.4596 227.73 46.7539C226.116 45.0482 225.309 42.5677 225.309 39.3125C225.309 37.3464 225.589 35.6536 226.148 34.2344C226.708 32.8021 227.47 31.6953 228.434 30.9141C230.296 29.4297 232.47 28.6875 234.957 28.6875C236.611 28.6875 238.004 28.9609 239.137 29.5078C240.283 30.0417 241.148 30.9466 241.734 32.2227C242.333 33.4857 242.633 35.2109 242.633 37.3984C242.633 39.3255 241.682 40.2891 239.781 40.2891H231.109C231.214 41.9688 231.643 43.1536 232.398 43.8438C233.167 44.5339 234.378 44.8789 236.031 44.8789C236.93 44.8789 237.789 44.7747 238.609 44.5664C239.443 44.3451 240.048 44.1302 240.426 43.9219L240.992 43.6094L242.184 46.793C242.04 46.9622 241.812 47.1966 241.5 47.4961C241.292 47.6914 240.868 47.9323 240.23 48.2188C239.592 48.5052 238.811 48.7591 237.887 48.9805C236.975 49.2018 235.999 49.3125 234.957 49.3125ZM231.148 36.9688L237.477 36.7148C237.529 36.3893 237.555 35.9401 237.555 35.3672C237.555 34.8333 237.34 34.2669 236.91 33.668C236.48 33.069 235.738 32.7695 234.684 32.7695C233.629 32.7695 232.822 33.0885 232.262 33.7266C231.702 34.3646 231.331 35.4453 231.148 36.9688Z" fill="white" class="svg-elem-1"></path>
<path d="M137.145 32.0859L137.535 29C139.046 28.6484 140.439 28.4727 141.715 28.4727C142.353 28.4727 142.939 28.4857 143.473 28.5117C144.007 28.5247 144.495 28.5573 144.938 28.6094V44.5664C145.979 44.957 146.715 45.4062 147.145 45.9141L146.754 49H137.535L137.145 45.9141C137.509 45.4062 138.245 44.957 139.352 44.5664V33.4336C138.401 33.1211 137.665 32.6719 137.145 32.0859Z" fill="#DF4D4D" class="svg-elem-2"></path>
<line x1="36.6983" y1="6.38932" x2="5.43868" y2="38.7596" stroke="#4ABE40" stroke-width="4" class="svg-elem-3"></line>
<line x1="37.5742" y1="68.0636" x2="5.75438" y2="36.2438" stroke="#4ABE40" stroke-width="4" class="svg-elem-4"></line>
<line y1="-2" x2="45" y2="-2" transform="matrix(0.694658 0.71934 0.71934 -0.694658 262.729 5)" stroke="#4ABE40" stroke-width="4" class="svg-elem-5"></line>
<line y1="-2" x2="45" y2="-2" transform="matrix(0.707107 -0.707107 -0.707107 -0.707107 259 66.6494)" stroke="#4ABE40" stroke-width="4" class="svg-elem-6"></line>
<line x1="150" y1="55.5" x2="39" y2="55.5" stroke="#DF4D4D" stroke-width="3" class="svg-elem-7"></line>
<line x1="251.103" y1="53.3675" x2="262.103" y2="20.3675" stroke="#4ABE40" stroke-width="4" class="svg-elem-8"></line>
</g>
<defs>
<filter id="filter0_d_1_9" x="0" y="5" width="297.988" height="76.4778" filterUnits="userSpaceOnUse" color-interpolation-filters="sRGB">
<feFlood flood-opacity="0" result="BackgroundImageFix"></feFlood>
<feColorMatrix in="SourceAlpha" type="matrix" values="0 0 0 0 0 0 0 0 0 0 0 0 0 0 0 0 0 0 127 0" result="hardAlpha"></feColorMatrix>
<feOffset dy="8"></feOffset>
<feGaussianBlur stdDeviation="2"></feGaussianBlur>
<feComposite in2="hardAlpha" operator="out"></feComposite>
<feColorMatrix type="matrix" values="0 0 0 0 0 0 0 0 0 0 0 0 0 0 0 0 0 0 0.5 0"></feColorMatrix>
<feBlend mode="normal" in2="BackgroundImageFix" result="effect1_dropShadow_1_9"></feBlend>
<feBlend mode="normal" in="SourceGraphic" in2="effect1_dropShadow_1_9" result="shape"></feBlend>
</filter>
</defs>
</svg>
