<svg width="801" height="696" viewBox="0 0 801 696" fill="none" xmlns="http://www.w3.org/2000/svg">
<path d="M259.061 658.412C259.061 678.688 242.471 695.278 222.195 695.278H69.8127C49.5361 695.278 32.9461 678.688 32.9461 658.412V491.283C32.9461 471.007 49.5361 454.417 69.8127 454.417H222.195C242.471 454.417 259.061 471.007 259.061 491.283V658.412Z" fill="white"/>
<path d="M530.031 658.412C530.031 678.688 513.441 695.278 493.164 695.278H340.782C320.505 695.278 303.916 678.688 303.916 658.412V402.803C303.916 382.527 320.505 365.937 340.782 365.937H493.164C513.441 365.937 530.031 382.527 530.031 402.803V658.412Z" fill="white"/>
<path d="M801 658.412C801 678.688 784.41 695.278 764.133 695.278H611.752C591.475 695.278 574.885 678.688 574.885 658.412V304.493C574.885 284.216 591.475 267.626 611.752 267.626H764.133C784.41 267.626 801 284.216 801 304.493V658.412Z" fill="white"/>
<path d="M769.108 1.40985L603.516 41.6977C590.376 44.878 587.449 55.3014 597.007 64.8597L632.343 99.3693C635.309 102.751 631.79 107.249 628.998 109.154C606.748 124.343 571.437 146.63 522.628 172.095C256.906 310.73 37.8616 302.226 34.5682 302.077C16.9853 301.184 1.95113 314.729 1.04175 332.342C0.134835 349.964 13.6821 364.988 31.3043 365.895C32.5996 365.961 37.8666 366.2 46.7219 366.2C103.514 366.2 307.519 356.401 552.187 228.751C610.08 198.548 650.206 172.498 673.636 156.006C676.949 153.674 682.722 149.653 688.051 155.077L726.699 193.723C736.257 203.281 746.629 200.34 749.755 187.188L787.323 19.5408C790.444 6.38683 782.245 -1.77051 769.108 1.40985Z" fill="white"/>
</svg>
